<svg width="558" height="249" viewBox="0 0 558 249" fill="none" xmlns="http://www.w3.org/2000/svg">
<g clip-path="url(#clip0_7_2)">
<path d="M84.5862 158H61L83.7126 84L84.5862 81V80V79L83.7126 78L82.8391 77V76V75V74L83.7126 73L85.4598 72L86.3333 71L88.0805 70L89.8276 69L91.5747 68L93.3218 67L95.069 66H96.8161H98.5632H101.184H102.931L104.678 67L106.425 68L108.172 69L109.92 70L111.667 72L113.414 74L115.161 76L116.034 77L117.782 80L119.529 84L137 158H110.793L108.172 146H87.2069L84.5862 158Z" stroke="#A93535" stroke-width="2"/>
<path d="M93 127L100.059 90C101.881 103.824 102.993 112.088 104.948 126.613L105 127H93Z" stroke="#A93535" stroke-width="2"/>
<path d="M180.02 97.8903H157.766L155.986 161.69C160.535 177.575 160.524 183.307 153.315 184.618C147.776 183.068 147.284 179.004 149.755 167.671C144.522 164.464 141.414 164.342 135.512 167.671C125.999 182.361 131.072 195.504 155.096 192.593C184.106 189.37 178.138 148.625 180.02 97.8903Z" stroke="#A93535" stroke-width="2"/>
<path d="M182.69 81.9405C180.02 66.9874 158.221 68.0873 155.986 82.9373C159.207 90.93 163.439 91.7138 170.228 91.9091C177.649 91.0953 180.458 88.996 182.69 81.9405Z" stroke="#A93535" stroke-width="2"/>
<path d="M259.243 125.802C260.601 101.249 230.014 91.7722 227.198 93.9028C205.156 97.6896 191.869 110.771 194.262 130.787C196.655 150.803 211.301 161.622 228.088 160.693C244.875 159.764 257.885 150.356 259.243 125.802Z" stroke="#A93535" stroke-width="2"/>
<path d="M309.091 185.614C340.247 177.639 338.466 165.677 336.686 93.9028H313.542V127.796C314.247 129.225 312.8 141.864 305.531 141.752C298.262 141.641 300.561 130.321 300.19 106.862C297.364 97.7418 294.85 93.7338 285.057 92.9059C276.948 94.0289 273.321 95.8413 269.035 101.878C280.003 105.81 278.627 118.923 277.936 139.759C277.936 153.715 284.167 157.702 293.069 158.699C301.97 159.696 307.216 155.732 314.432 142.749C315.305 163.31 313.222 171.615 299.3 173.652L212.955 176.643C201.787 175.544 197.925 176.414 196.933 181.627C196.452 188.458 223.897 188.319 309.091 185.614Z" stroke="#A93535" stroke-width="2"/>
<path d="M363.39 154.712H388.315L386.534 102.875C382.926 92.4855 379.188 89.5741 369.621 89.9153C362.358 89.9679 359.073 92.0043 354.489 98.8871C360.361 100.587 362.396 103.503 363.39 112.843V154.712Z" stroke="#A93535" stroke-width="2"/>
<path d="M383.864 73.9655C384.358 67.4981 361.767 56.5393 356.269 73.9655C356.498 81.2894 360.938 85.8619 369.621 85.9279C378.305 85.9939 383.37 80.4329 383.864 73.9655Z" stroke="#A93535" stroke-width="2"/>
<path d="M411.458 153.715L409.678 63H434.602L435.493 98.8871C442.516 88.3291 447.119 84.9847 456.856 84.931C472.861 92.0712 478.081 99.343 480 118.824C479.15 142.02 474.528 150.575 456.856 155.708C448.365 155.863 443.844 152.898 436.383 142.749V153.715H411.458Z" stroke="#A93535" stroke-width="2"/>
<path d="M202.302 61.8176C198.827 61.9044 197.951 63.7697 197.849 69.5743H195.177V74.4223H197.849V87.027H202.302V74.4223H205.865V69.5743H202.302C202.037 66.7291 202.79 65.8521 205.865 65.6959V61.8176M296.716 85.0878C301.591 84.1963 303.317 82.3035 303.841 75.3919C303.948 69.4788 302.359 67.5827 296.716 66.6655C291.396 67.114 289.43 68.7402 288.7 75.3919C289.463 82.8014 291.096 85.0401 296.716 84.7466M225.46 82.179H227.242V85.0878C223.756 87.558 221.924 87.2029 220.116 83.1486C219.002 85.7567 218.145 86.8116 215.663 87.027C212.522 86.5847 211.597 85.4772 211.209 82.179C211.381 78.2386 212.515 76.9309 216.553 76.3615H220.116C220.293 74.0992 219.646 73.3482 217.444 73.4527C216.049 73.401 215.558 73.7285 214.772 74.4223C213.022 74.2099 212.1 74.4223 212.1 72.4831C212.1 70.5439 214.683 68.6738 218.335 68.6047C223.174 68.7285 224.687 70.0618 225.46 74.4223V82.179ZM234.367 80.2398C233.004 81.0856 232.673 81.7484 232.586 83.1486C233.237 85.8784 235.184 86.2244 239.711 86.0574C243.514 85.6955 244.723 84.4637 245.055 80.2398C244.52 76.5927 243.079 75.838 239.711 75.3919C238.559 75.0127 238.112 74.6634 237.93 73.4527C238.353 72.5642 238.805 72.3181 239.711 72.4831H241.493C241.855 73.3226 242.346 73.3948 243.274 73.4527C244.387 73.3578 244.695 73.09 245.055 72.4831C245.475 69.9634 244.631 69.2913 242.383 68.6047C237.019 68.1344 235.303 69.0161 234.367 72.4831C233.988 76.1412 234.91 77.3058 237.93 78.3006C239.57 78.3697 239.912 78.7728 239.711 80.2398C239.241 81.1784 238.657 81.4 237.039 81.2094C235.777 80.4042 235.127 80.0636 234.367 80.2398ZM251.29 63.7567V81.2094C252.238 84.1366 253.231 84.9392 255.744 85.0878C258.717 85.0642 260.197 84.1182 260.197 82.179C260.197 80.2398 256.635 82.179 256.635 76.3615V72.4831H260.197V68.6047H256.635V63.7567H251.29ZM272.667 72.4831H275.339V85.0878H280.683V72.4831H284.246V68.6047H280.683C280.444 65.3232 281.076 64.3103 283.355 63.7567V59.8784H280.683C276.249 60.0199 275.484 62.4943 275.339 68.6047H272.667V72.4831ZM296.716 71.5135C299.388 71.5135 299.388 74.4223 299.388 76.3615C299.388 78.3006 298.497 79.2702 296.716 79.2702C294.044 79.2702 294.044 75.3919 294.044 75.3919C294.044 75.3919 294.044 71.5135 296.716 71.5135ZM317.202 71.5135C320.765 71.5135 320.765 79.2702 317.202 79.2702C313.639 79.2702 313.639 71.5135 317.202 71.5135ZM317.202 84.7466C321.512 84.1514 323.359 82.6788 324.327 75.3919C323.401 70.2322 322.824 67.4057 318.092 66.6655C312.682 66.8294 310.992 68.8321 310.076 75.3919C310.063 82.3883 312.218 83.7245 317.202 84.7466ZM343.032 58.9088L343.923 84.7466H339.469V80.2398C337.9 83.291 336.515 84.1034 333.234 84.1182C329.783 82.6923 328.491 81.1471 328.781 75.3919C328.407 70.3151 329.615 68.5881 333.234 66.6655C335.986 66.2976 337.295 66.9238 339.469 68.6047V58.9088H343.032ZM335.906 70.5439C339.696 71.7459 339.415 77.5492 335.906 79.2702C334.539 78.8799 333.746 78.7547 333.234 75.3919C333.29 72.2516 333.87 71.1896 335.906 70.5439ZM187.16 76.3615C186.269 89.9393 189.116 90.2495 195.177 89.9357L341.251 87.027C350.039 87.4448 352.432 84.5373 351.939 73.4527C352.168 56.5879 351.048 56.0001 339.469 56C327.89 55.9999 202.302 58.9088 202.302 58.9088C190.944 58.8537 187.153 62.0756 187.16 76.3615Z" stroke="#A93535"/>
<path d="M220 81.6467V79.0805C217.883 78.7537 216.925 79.3852 217.005 81.6467C217.116 83.359 218.494 83.5409 220 81.6467Z" stroke="#A93535"/>
</g>
<defs>
<clipPath id="clip0_7_2">
<rect width="558" height="249" fill="white"/>
</clipPath>
</defs>
</svg>
